# xmcd CD database file
#
# Track frame offsets:
#	150
#	13610
#	26940
#	41892
#	53270
#	64285
#	75970
#	88515
#	103800
#	117575
#
# Disc length: 1790 seconds
#
# Revision: 0
# Processed by: cddbd v1.5.1PL0 Copyright (c) Steve Scherf et al.
# Submitted via: CDex 1.51
#
DISCID=7c06fc0a
DTITLE=Various Artist - 名作アニメ主題歌 ベスト20 -Disc1-
DYEAR=1999
DGENRE=Anime
TTITLE0=よあけのみち
TTITLE1=草原のマルコ
TTITLE2=ロックリバーへ
TTITLE3=ペリーヌものがたり
TTITLE4=きこえるかしら
TTITLE5=誰よりも遠くへ
TTITLE6=裸足のフローネ
TTITLE7=虹になりたい
TTITLE8=アンネットの青い空
TTITLE9=Love with You 〜愛のプレゼント〜
EXTD=YEAR: 1999
EXTT0=
EXTT1=
EXTT2=
EXTT3=
EXTT4=
EXTT5=
EXTT6=
EXTT7=
EXTT8=
EXTT9=
PLAYORDER=
